<mxfile host="drawio-plugin" modified="2023-04-22T15:13:57.239Z" agent="5.0 (Macintosh; Intel Mac OS X 10_15_7) AppleWebKit/537.36 (KHTML, like Gecko) Chrome/104.0.5112.102 Safari/537.36" etag="jC-HmB8z-qoreQDA_Z05" version="20.5.3" type="embed"><diagram id="LXXolyaRc9GEFiz_JLzD" name="Page-1"><mxGraphModel dx="827" dy="604" grid="1" gridSize="10" guides="1" tooltips="1" connect="1" arrows="1" fold="1" page="1" pageScale="1" pageWidth="850" pageHeight="1100" math="0" shadow="0"><root><mxCell id="0"/><mxCell id="1" parent="0"/><mxCell id="n3DOP5MY9lgfGkFcCP3w-1" value="Birthday Letter" style="rounded=1;whiteSpace=wrap;html=1;" parent="1" vertex="1"><mxGeometry x="365" y="960" width="120" height="60" as="geometry"/></mxCell><mxCell id="5" value="Main" style="rounded=0;whiteSpace=wrap;html=1;" vertex="1" parent="1"><mxGeometry x="330" y="40" width="140" height="40" as="geometry"/></mxCell><mxCell id="8" style="edgeStyle=orthogonalEdgeStyle;rounded=0;orthogonalLoop=1;jettySize=auto;html=1;" edge="1" parent="1" source="6"><mxGeometry relative="1" as="geometry"><mxPoint x="400" y="200" as="targetPoint"/></mxGeometry></mxCell><mxCell id="6" value="degree input" style="rounded=1;whiteSpace=wrap;html=1;" vertex="1" parent="1"><mxGeometry x="340" y="110" width="120" height="60" as="geometry"/></mxCell><mxCell id="13" value="" style="edgeStyle=orthogonalEdgeStyle;rounded=0;orthogonalLoop=1;jettySize=auto;html=1;" edge="1" parent="1" source="9" target="12"><mxGeometry relative="1" as="geometry"/></mxCell><mxCell id="9" value="Check num&lt;br&gt;(checks if the num is perfectly divisble by 360; otherwise - check degree sign)&lt;br&gt;" style="rounded=0;whiteSpace=wrap;html=1;" vertex="1" parent="1"><mxGeometry x="290" y="200" width="220" height="60" as="geometry"/></mxCell><mxCell id="12" value="Determine Sign" style="whiteSpace=wrap;html=1;rounded=0;" vertex="1" parent="1"><mxGeometry x="340" y="340" width="120" height="60" as="geometry"/></mxCell></root></mxGraphModel></diagram></mxfile>